<?xml version="1.0" encoding="UTF-8" standalone="no"?>
<!-- Created with Inkscape (http://www.inkscape.org/) -->

<svg
   width="150mm"
   height="150mm"
   viewBox="0 0 150 150"
   version="1.1"
   id="svg5"
   inkscape:version="1.1.2 (0a00cf5339, 2022-02-04, custom)"
   sodipodi:docname="rocket.svg"
   xmlns:inkscape="http://www.inkscape.org/namespaces/inkscape"
   xmlns:sodipodi="http://sodipodi.sourceforge.net/DTD/sodipodi-0.dtd"
   xmlns="http://www.w3.org/2000/svg"
   xmlns:svg="http://www.w3.org/2000/svg">
  <sodipodi:namedview
     id="namedview7"
     pagecolor="#ffffff"
     bordercolor="#666666"
     borderopacity="1.0"
     inkscape:pageshadow="2"
     inkscape:pageopacity="0.0"
     inkscape:pagecheckerboard="0"
     inkscape:document-units="mm"
     showgrid="false"
     inkscape:zoom="0.6674995"
     inkscape:cx="268.91406"
     inkscape:cy="379.0265"
     inkscape:window-width="1920"
     inkscape:window-height="1006"
     inkscape:window-x="0"
     inkscape:window-y="0"
     inkscape:window-maximized="1"
     inkscape:current-layer="layer1" />
  <defs
     id="defs2" />
  <g
     inkscape:label="Ebene 1"
     inkscape:groupmode="layer"
     id="layer1">
    <g
       id="g2630"
       transform="matrix(2.1247978,-0.12731597,0.16238089,2.030429,-150.80747,-147.98545)"
       style="fill:#ffd93e;fill-opacity:1;stroke:none;stroke-width:0.276585;stroke-miterlimit:4;stroke-dasharray:none;stroke-opacity:1">
      <path
         style="fill:#ffd93e;fill-opacity:1;stroke:none;stroke-width:0.276585;stroke-miterlimit:4;stroke-dasharray:none;stroke-opacity:1"
         d="m 85.784167,129.21828 -5.45787,-5.48932 0.0016,-0.38898 c 7.94e-4,-0.21394 0.05345,-0.77836 0.116811,-1.25426 0.813464,-6.10955 4.851757,-13.32772 10.934207,-19.54414 3.300101,-3.372785 6.634017,-5.730327 11.668935,-8.251553 6.30039,-3.154903 13.71972,-5.605256 23.78985,-7.856981 1.3785,-0.308238 2.51321,-0.555885 2.52158,-0.550328 0.0281,0.01868 -1.02271,4.50864 -1.49218,6.375673 -2.96122,11.776559 -6.70923,20.633719 -11.42473,26.998499 -2.473,3.33796 -6.1053,6.77303 -10.08223,9.53478 -4.93458,3.4268 -10.10413,5.54426 -14.293862,5.85483 l -0.824259,0.0611 z m 25.440173,-17.8969 c 1.98549,-0.55582 3.6106,-2.22548 4.1574,-4.27137 0.21626,-0.80916 0.20118,-2.24566 -0.0322,-3.06509 -0.57025,-2.00245 -1.93711,-3.44513 -3.91979,-4.137234 -0.6041,-0.210872 -0.75404,-0.229346 -1.84896,-0.227818 -1.05805,0.0015 -1.26212,0.02529 -1.82155,0.212534 -1.0134,0.339188 -1.67694,0.755878 -2.46436,1.547548 -0.5956,0.59883 -0.77164,0.84072 -1.08247,1.48745 -0.50523,1.05115 -0.66143,1.81356 -0.61023,2.97854 0.0714,1.62412 0.58871,2.79699 1.74657,3.95964 0.87003,0.87364 1.99075,1.45887 3.22649,1.68486 0.6063,0.11087 1.95699,0.0247 2.64907,-0.16906 z"
         id="path2618" />
      <path
         style="fill:#ffd93e;fill-opacity:1;stroke:none;stroke-width:0.276585;stroke-miterlimit:4;stroke-dasharray:none;stroke-opacity:1"
         d="m 92.548394,147.58474 c 0.0214,-0.0565 0.232793,-0.69438 0.469757,-1.41752 1.072837,-3.27402 1.240403,-5.69146 0.611669,-8.82434 -0.112327,-0.5597 -0.193093,-1.02878 -0.179478,-1.04239 0.01363,-0.0136 0.819121,-0.26511 1.79002,-0.55888 2.128859,-0.64414 3.126182,-1.03825 4.989748,-1.97178 0.77914,-0.39029 1.44892,-0.70963 1.48839,-0.70963 0.0395,0 0.22776,0.39163 0.41841,0.87029 1.88443,4.73109 0.68564,8.68162 -3.487765,11.49369 -1.245057,0.83893 -3.270006,1.69281 -4.971626,2.09645 -0.814152,0.19312 -1.186,0.21423 -1.129125,0.0641 z"
         id="path2620" />
      <path
         style="fill:#ffd93e;fill-opacity:1;stroke:none;stroke-width:0.276585;stroke-miterlimit:4;stroke-dasharray:none;stroke-opacity:1"
         d="m 70.884308,143.31629 c 1.311437,-5.578 2.962225,-9.13174 5.262888,-11.32972 1.979401,-1.89106 4.194463,-3.13603 6.137259,-3.44944 l 0.642794,-0.10369 1.759408,1.75798 c 2.010608,2.00897 1.915755,1.82527 1.589892,3.07929 -0.320911,1.23495 -1.039955,2.64076 -2.0354,3.97943 -0.722609,0.97176 -2.326407,2.52604 -3.216317,3.11701 -2.300682,1.52783 -5.96165,2.88691 -10.081003,3.74241 l -0.258653,0.0537 z"
         id="path2622" />
      <path
         style="fill:#ffd93e;fill-opacity:1;stroke:none;stroke-width:0.276585;stroke-miterlimit:4;stroke-dasharray:none;stroke-opacity:1"
         d="m 67.33817,121.97003 c 0.15956,-1.13261 0.741597,-2.87481 1.40235,-4.19762 2.305902,-4.61636 6.225414,-6.69304 10.545266,-5.58721 0.759672,0.19446 1.324809,0.38697 2.1697,0.73908 l 0.638456,0.26608 -0.692471,1.32702 c -1.092247,2.09314 -1.367073,2.80243 -2.551943,6.58626 -0.123973,0.3959 -0.07577,0.39338 -1.648224,0.0863 -1.39223,-0.27184 -3.355331,-0.3647 -4.606275,-0.21791 -1.17562,0.13796 -2.517428,0.4539 -4.008406,0.9438 l -1.301047,0.4275 z"
         id="path2624" />
    </g>
  </g>
</svg>
